<?xml version="1.0" standalone="no"?>
<!DOCTYPE svg PUBLIC "-//W3C//DTD SVG 20010904//EN"
 "http://www.w3.org/TR/2001/REC-SVG-20010904/DTD/svg10.dtd">
<svg version="1.0" xmlns="http://www.w3.org/2000/svg"
 width="500.000000pt" height="100.000000pt" viewBox="0 0 500.000000 100.000000"
 preserveAspectRatio="xMidYMid meet">

<g transform="translate(0.000000,100.000000) scale(0.100000,-0.100000)"
fill="#FFFFFF" stroke="none">
<path d="M3840 796 c-86 -21 -129 -43 -184 -99 -78 -78 -110 -151 -114 -263
-4 -100 8 -139 62 -197 69 -74 218 -95 341 -47 64 25 149 100 179 158 l17 32
-82 0 c-76 0 -84 -2 -115 -30 -63 -55 -152 -63 -207 -20 -81 64 -40 257 66
312 74 37 174 19 199 -37 11 -24 16 -25 91 -25 l80 0 -6 42 c-17 127 -175 211
-327 174z"/>
<path d="M2565 788 c-2 -7 -8 -34 -13 -60 l-10 -48 84 0 c59 0 84 -4 84 -12 0
-7 -11 -73 -25 -148 -14 -74 -33 -183 -43 -243 l-18 -107 76 0 76 0 16 98 c9
53 29 168 44 255 l28 157 83 0 c92 0 88 -3 98 73 l6 47 -241 0 c-184 0 -242
-3 -245 -12z"/>
<path d="M3127 763 c-6 -43 -59 -345 -82 -468 -8 -44 -14 -90 -15 -102 l0 -23
189 0 189 0 7 38 c3 20 9 47 12 60 5 22 4 22 -112 22 l-117 0 7 43 c3 23 8 54
11 70 l6 27 103 0 104 0 6 38 c4 20 9 45 12 55 4 15 -5 17 -95 17 -54 0 -101
2 -104 5 -3 3 0 33 6 68 l11 62 117 3 116 3 11 50 c6 27 11 54 11 59 0 6 -78
10 -194 10 l-193 0 -6 -37z"/>
<path d="M4300 728 c-6 -40 -26 -156 -45 -258 -18 -102 -38 -211 -43 -242 l-9
-58 73 0 c61 0 74 3 78 18 5 17 46 229 46 238 0 2 54 4 120 4 89 0 120 -3 120
-12 0 -7 -9 -59 -20 -116 -11 -56 -20 -109 -20 -117 0 -12 16 -15 74 -15 73 0
75 0 80 27 3 16 17 93 31 173 38 223 64 372 69 403 l6 27 -75 0 c-41 0 -75 -2
-75 -4 0 -5 -38 -193 -45 -223 -5 -22 -9 -23 -125 -23 -66 0 -120 1 -120 3 0
1 9 49 20 107 29 151 33 140 -54 140 l-74 0 -12 -72z"/>
<path d="M220 480 l0 -310 40 0 40 0 0 125 0 125 53 0 52 0 74 -125 73 -125
44 0 c24 0 44 2 44 4 0 4 -44 79 -105 180 -49 81 -47 76 -28 82 46 14 80 37
103 71 20 30 25 49 25 103 0 58 -4 71 -29 104 -48 63 -89 76 -248 76 l-138 0
0 -310z m292 226 c40 -26 56 -86 37 -139 -20 -59 -60 -77 -166 -77 l-83 0 0
121 0 121 93 -4 c67 -3 99 -9 119 -22z"/>
<path d="M770 480 l0 -310 165 0 165 0 0 30 0 30 -125 0 -125 0 0 110 0 110
115 0 115 0 0 35 0 35 -115 0 -115 0 0 105 0 105 125 0 125 0 0 30 0 30 -165
0 -165 0 0 -310z"/>
<path d="M1230 480 l0 -310 136 0 c215 0 300 37 359 155 27 54 30 69 30 155 0
118 -23 178 -92 235 -71 60 -131 75 -295 75 l-138 0 0 -310z m297 234 c26 -9
65 -32 86 -52 90 -87 90 -278 0 -363 -55 -52 -93 -64 -203 -64 l-95 0 -3 248
-2 247 84 0 c51 0 104 -6 133 -16z"/>
<path d="M1870 577 c0 -233 8 -281 54 -342 37 -48 121 -78 203 -72 77 6 137
38 178 95 l30 44 3 244 3 244 -41 0 -40 0 0 -226 c0 -214 -1 -228 -22 -265
-58 -103 -246 -84 -278 29 -5 20 -10 133 -10 250 l0 212 -40 0 -40 0 0 -213z"/>
</g>
</svg>
